<?xml version="1.0" standalone="no"?><!DOCTYPE svg PUBLIC "-//W3C//DTD SVG 1.1//EN" "http://www.w3.org/Graphics/SVG/1.1/DTD/svg11.dtd"><svg t="1738162530667" class="icon" viewBox="0 0 1024 1024" version="1.1" xmlns="http://www.w3.org/2000/svg" p-id="19136" xmlns:xlink="http://www.w3.org/1999/xlink" width="200" height="200"><path d="M932.169143 529.92c0-35.291429-2.852571-61.019429-9.051429-87.698286H520.374857v159.177143h236.397714c-4.754286 39.570286-30.500571 99.145143-87.698285 139.172572l-0.804572 5.321142 127.341715 98.651429 8.832 0.877714c81.005714-74.825143 127.725714-184.923429 127.725714-315.52" p-id="19137" fill="#ffffff"></path><path d="M520.374857 949.321143c115.821714 0 213.046857-38.125714 284.068572-103.899429L669.074286 740.571429c-36.205714 25.252571-84.845714 42.898286-148.699429 42.898285-113.426286 0-209.700571-74.825143-244.022857-178.249143l-5.028571 0.420572-132.406858 102.473143-1.737142 4.809143c70.546286 140.123429 215.424 236.397714 383.195428 236.397714" p-id="19138" fill="#ffffff"></path><path d="M276.352 605.220571a264.082286 264.082286 0 0 1-14.299429-84.845714c0-29.549714 5.248-58.148571 13.824-84.845714l-0.237714-5.668572-134.070857-104.118857-4.388571 2.084572A429.348571 429.348571 0 0 0 91.428571 520.374857c0 69.12 16.676571 134.4 45.750858 192.548572l139.172571-107.702858" p-id="19139" fill="#ffffff"></path><path d="M520.374857 257.28c80.548571 0 134.875429 34.797714 165.851429 63.872L807.314286 202.971429C732.946286 133.851429 636.196571 91.428571 520.411429 91.428571c-167.789714 0-312.685714 96.274286-383.213715 236.397715l138.697143 107.702857c34.797714-103.405714 131.072-178.249143 244.498286-178.249143" p-id="19140" fill="#ffffff"></path></svg>